<svg width="109px" height="29px" viewBox="0 0 109 29" version="1.1" xmlns="http://www.w3.org/2000/svg" xmlns:xlink="http://www.w3.org/1999/xlink">
    <g stroke="none" stroke-width="1" fill="none">
        <g fill="#FFFFFF">
            <path d="M102.061405,0.0314739504 C101.959726,-0.00708163885 98.7529221,0.000629479009 98.7529221,0.000629479009 L98.7529221,7.87368081 C98.4165987,7.64234728 98.0646324,7.44185821 97.6735588,7.27221362 C96.7975538,6.87894661 95.8433341,6.68616866 94.7952567,6.68616866 C93.723715,6.68616866 92.7538523,6.87894661 91.8934903,7.27221362 C91.0331283,7.66548063 90.2900883,8.18983665 89.6643705,8.8607039 C89.0386527,9.53157115 88.5537213,10.3335274 88.217398,11.2665727 C87.8810747,12.1996179 87.7090023,13.2097744 87.7090023,14.3047531 C87.7090023,15.3920207 87.8810747,16.4021772 88.217398,17.3198002 C88.5537213,18.2451343 89.0386527,19.0393795 89.6643705,19.7102467 C90.2900883,20.381114 91.0331283,20.9131811 91.8934903,21.298737 C92.7538523,21.692004 93.7158935,21.884782 94.7952567,21.884782 C95.8433341,21.884782 96.7975538,21.6997151 97.6735588,21.3218704 C98.5495638,20.9517367 99.2926037,20.4350918 99.9026786,19.7796468 C100.512753,19.1242018 100.997685,18.3299566 101.349651,17.3892003 C101.39658,17.2581112 101.443509,17.1270222 101.490438,16.9882221 C101.865868,15.9472212 102.061405,14.7288646 102.061405,13.3331523 L102.061405,0.0314739504 Z M64.8505956,16.0259745 L64.8505956,13.8531826 L64.956541,13.8531826 L64.956541,7.85422396 L68.2662208,7.85422396 L68.2662208,15.6608723 C68.2662208,16.1804347 68.2168254,16.6715412 68.1168333,17.1330205 L68.1168333,22.7485654 C68.1168333,23.7275201 67.9465555,24.6062667 67.59826,25.3770971 C67.2499645,26.1479275 66.7700907,26.8031334 66.1431589,27.3427146 C65.5239669,27.8822959 64.7809365,28.290836 63.9218076,28.5760433 C63.0626787,28.8612505 62.118411,29 61.1044841,29 C60.0905572,29 59.1540294,28.8612505 58.3026404,28.5760433 C57.4512514,28.290836 56.7159609,27.8822959 56.089029,27.3427146 L58.3103803,24.9377238 C58.9295723,25.6314711 59.8661001,25.9783448 61.112224,25.9783448 C62.3351282,25.9783448 63.2639161,25.6314711 63.8985879,24.9377238 C64.5332597,24.2439764 64.8505956,23.2264803 64.8505956,21.900652 L64.8505956,21.1154267 C64.5856025,21.2379819 64.3071055,21.3465135 64.0153998,21.4413093 C63.1448443,21.7242143 62.1880174,21.8618437 61.160605,21.8618437 C60.1331925,21.8618437 59.1842085,21.7242143 58.3214958,21.4413093 C57.458783,21.1584043 56.7137129,20.753162 56.0784426,20.2179364 C55.4510152,19.6827107 54.9490732,19.0327939 54.5961453,18.2681858 C54.2353745,17.5035777 54.0549891,16.6319246 54.0549891,15.6608723 L54.0549891,7.85422396 L54.062832,7.85422396 L57.3803546,7.85422396 L57.3803546,14.8198034 C57.3803546,16.1425754 57.6940683,17.144212 58.3293386,17.8323592 C58.9567661,18.5205065 59.9057501,18.8645801 61.1684478,18.8645801 C62.407617,18.8645801 63.3487582,18.5205065 63.9918713,17.8323592 C64.4218571,17.3722636 64.7080985,16.7686118 64.8505956,16.0259745 Z M98.7216362,16.1477103 C98.5104564,16.7106219 98.2210619,17.1810001 97.8534527,17.5742671 C97.4858434,17.9675341 97.0400195,18.2759788 96.5159808,18.4996012 C95.9919421,18.7232236 95.4209746,18.8388904 94.7952567,18.8388904 C94.153896,18.8388904 93.575107,18.7232236 93.0588898,18.4918901 C92.5426725,18.2605566 92.0968486,17.9444007 91.7214179,17.5434226 C91.3459872,17.1424445 91.0565927,16.6643552 90.8532344,16.1168658 C90.6498761,15.5693764 90.5481969,14.9679092 90.5481969,14.3124642 C90.5481969,13.6570192 90.6498761,13.055552 90.8532344,12.4926404 C91.0565927,11.9297288 91.3459872,11.4516395 91.7214179,11.0506614 C92.0968486,10.6496832 92.5426725,10.3335274 93.0588898,10.1021939 C93.575107,9.87086034 94.153896,9.75519357 94.7952567,9.75519357 C95.4209746,9.75519357 95.9919421,9.87086034 96.5159808,10.1021939 C97.0400195,10.3335274 97.4858434,10.6573944 97.8534527,11.0660836 C98.2210619,11.4747729 98.5104564,11.9605733 98.7216362,12.5234849 C98.9328159,13.0863965 99.0423165,13.6801526 99.0423165,14.3124642 C99.0423165,14.9756204 98.9328159,15.5847987 98.7216362,16.1477103 Z M70.9137118,12.9883091 C70.9137118,12.0142987 71.0950883,11.1399901 71.4578414,10.3730528 C71.8205944,9.60611549 72.3174083,8.95421877 72.9482832,8.41736264 C73.5791581,7.88050652 74.3362079,7.47402974 75.2036608,7.19026293 C76.0711137,6.90649613 77.0253119,6.76844741 78.0583695,6.76844741 C79.0914271,6.76844741 80.0456253,6.90649613 80.9288501,7.19026293 C81.8041889,7.47402974 82.5612387,7.88050652 83.1921136,8.41736264 C83.8229884,8.95421877 84.3198024,9.60611549 84.6746695,10.3730528 C85.0216506,11.1399901 85.2030272,12.0142987 85.2030272,12.9883091 L85.2030272,21.8387657 L81.8672764,21.8387657 L81.8672764,13.8319401 C81.8672764,12.5051386 81.543953,11.5004507 80.8973063,10.8102071 C80.2506596,10.1199635 79.3043473,9.7748417 78.0583695,9.7748417 C76.7887339,9.7748417 75.8345356,10.1199635 75.2036608,10.8102071 C74.5649,11.5004507 74.2494626,12.5128079 74.2494626,13.8319401 L74.2494626,21.8310964 L70.9137118,21.8310964 L70.9137118,12.9883091 Z M32.7058156,14.2692856 C32.7136536,14.29987 32.7293297,14.3228082 32.7371677,14.3533925 C33.2701544,15.8137939 33.771789,17.2512571 34.2812615,18.47463 C34.2185572,18.4516917 35.4412914,14.8962642 35.7312989,14.0399032 C36.0213063,13.1835422 37.0088993,10.3927227 37.2126884,9.84985101 C37.4243154,9.28404104 37.5183719,8.47355649 39.0781418,8.47355649 C40.6457497,8.47355649 40.8260246,9.38344009 40.9827854,9.84985101 C41.1944125,10.5456444 41.4373917,11.3102524 41.688209,12.0825066 C41.9390263,12.8547607 42.1976816,13.6193688 42.4563369,14.3763308 C42.7228302,15.1332927 42.9736475,15.8673165 43.2166267,16.578402 C43.4596059,17.2894875 43.6869091,17.9241122 43.8985362,18.47463 C44.1336773,17.8552975 44.4001707,17.144212 44.6980162,16.3566656 C44.9958617,15.5691193 45.3015453,14.7356966 45.6150668,13.8640434 C45.6229049,13.8411051 45.6307429,13.8105208 45.638581,13.7875825 C45.638581,13.7646443 45.646419,13.7493521 45.654257,13.7187678 C45.9677786,12.8471146 46.2656241,11.9754614 46.5556316,11.0961622 C46.8456391,10.2168629 47.2845693,8.65706243 47.5118724,7.86187004 L51.195751,7.86187004 C51.195751,7.86187004 51.1487228,7.99949949 51.0703424,8.22888191 C50.8665534,8.85586053 50.2865385,10.6373973 50.0905875,11.1038082 C49.8397702,11.6925565 46.6104979,19.8279863 45.6620951,21.8694898 L42.2290337,21.8694898 C42.0722729,21.4948318 41.8684839,20.9519601 41.6176666,20.2255825 C41.3668494,19.5068509 41.092518,18.7193046 40.7868344,17.8629435 C40.4889889,17.0065825 40.1833054,16.1349293 39.8854599,15.2403379 C39.5876144,14.3457464 39.3054449,13.5199697 39.0546277,12.7706538 C38.8038104,13.5199697 36.1310389,21.4871858 35.9821161,21.8618437 L32.392294,21.8618437 C32.0709344,21.3648485 30.7933339,18.3370005 29.5627617,15.2326918 C29.5314095,15.1638771 29.5078954,15.1027084 29.4765432,15.0262476 C28.1754287,11.7537251 26.9213423,8.35886528 26.9526945,7.8771622 C26.9918847,7.86187004 30.5660308,7.86187004 30.6287351,7.86951612 C30.6600872,7.88480828 30.8482002,8.45826433 31.0990174,9.26874888 C31.5614618,10.7597346 32.2982375,13.1758961 32.6744634,14.2310552 C32.6744634,14.2387013 32.6823015,14.2387013 32.6823015,14.2463474 C32.7058156,14.2539935 32.7058156,14.2616396 32.7058156,14.2692856 Z M21.0182459,18.5042935 C23.5093518,21.8461036 20.628533,21.884782 20.628533,21.884782 C20.7125887,21.7687469 20.628533,21.884782 20.628533,21.884782 L15.5316998,21.884782 C15.4170783,21.884782 15.3865126,21.7764826 15.4858512,21.7223329 C16.532727,21.1731002 17.0294199,20.1906699 17.7171485,19.2005039 C17.9158256,18.9142841 18.0992199,18.6435356 18.2749728,18.4192011 C19.2836415,17.1041369 19.8720315,17.4212994 20.1394815,17.5373345 C20.3992901,17.6533696 20.7507959,18.1407169 21.0182459,18.5042935 Z M10.3690808,14.3487804 C9.14968586,12.2093981 8.53610496,10.785681 7.79825451,10.3364868 C7.74388658,10.2984195 7.72835289,10.2298984 7.76718712,10.1842176 L9.73219937,7.74029688 C10.7729568,6.65157206 12.2020567,6.66679898 13.0175756,7.68700265 C14.9592873,10.1385369 16.7301283,12.7194999 18.4310678,14.9654707 C18.4776689,15.0263784 18.4466015,15.1101264 18.368933,15.1329668 C17.6466163,15.3309168 16.9242995,15.7801109 16.3029518,16.5642973 C16.1010138,16.8079281 15.479666,17.6758625 15.2699611,17.9727875 C14.4855096,19.0691258 14.4000743,19.2442353 13.5767885,19.1985546 C12.5826321,19.1376469 11.371004,16.0998762 10.3690808,14.3487804 Z M8.38952568,16.1921649 C9.70600773,18.4782957 10.9056423,20.8174163 11.9339004,21.5441333 C12.0585378,21.6425429 11.9962191,21.8393621 11.8326326,21.8393621 L1.97070195,21.8393621 C0.48284354,21.8393621 -0.490885788,20.4162079 0.404945193,19.0536134 C0.412735028,19.0460434 0.412735028,19.0384734 0.420524863,19.0309034 L5.48391737,13.2474467 C5.74098191,12.9597879 6.1226838,12.8916581 6.29406017,13.0354876 C6.94840627,13.5653854 7.7195999,15.0339595 8.38952568,16.1921649 Z M107.710764,1.49669148 L107.154782,0.0318444996 L106.477933,0.0318444996 L106.477933,2.45998759 L106.880819,2.45998759 L106.880819,0.549317618 L106.904992,0.549317618 L107.517379,2.14950372 L107.90415,2.14950372 C108.105593,1.61610835 108.315094,1.08271299 108.516537,0.549317618 L108.532652,0.549317618 L108.532652,2.45998759 L108.951654,2.45998759 L108.951654,0.0318444996 L108.282863,0.0318444996 L107.72688,1.49669148 L107.710764,1.49669148 Z M105.075889,2.45998759 L105.519064,2.45998759 L105.519064,0.398056245 L106.139508,0.398056245 L106.139508,0.0318444996 L104.447387,0.0318444996 L104.447387,0.398056245 L105.075889,0.398056245 L105.075889,2.45998759 Z"></path>
        </g>
    </g>
</svg>