<svg width="110px" height="30px" viewBox="0 0 110 30" version="1.1" xmlns="http://www.w3.org/2000/svg" xmlns:xlink="http://www.w3.org/1999/xlink">
    <g stroke="none" stroke-width="1" fill="none">
        <g transform="translate(0.000000, 7.000000)">
            <path d="M20.7263398,12.2236929 C23.321112,15.7258721 20.3204092,15.7664066 20.3204092,15.7664066 C20.4079629,15.6448032 20.3204092,15.7664066 20.3204092,15.7664066 L15.0114735,15.7664066 C14.8920821,15.7664066 14.8602444,15.6529101 14.9637169,15.5961618 C16.054158,15.0205721 16.5715206,13.9909963 17.2878687,12.9533136 C17.4948137,12.6533584 17.6858399,12.3696171 17.8689066,12.1345171 C18.9195506,10.7563447 19.5324263,11.0887275 19.8110061,11.2103309 C20.0816265,11.3319344 20.44776,11.8426688 20.7263398,12.2236929" id="Shape" fill="#4C5B93"></path>
            <path d="M10.4427642,7.9675724 C11.4695299,9.83215857 12.7112,13.0668102 13.7300062,13.1316653 C14.5737052,13.1803067 14.6612588,12.9938481 15.4651606,11.826455 C15.6800651,11.5102861 16.316819,10.5860999 16.523764,10.3266792 C17.1605179,9.4916689 17.9007444,9.01336203 18.6409708,8.80258273 C18.720565,8.77826203 18.7524027,8.68908617 18.7046462,8.624231 C16.9615323,6.23269663 15.1467837,3.4844588 13.1569277,0.874038203 C12.3211882,-0.212285894 10.8566542,-0.228499686 9.7900914,0.930786477 L7.77635715,3.53310017 C7.73656002,3.58174153 7.7524789,3.6547036 7.80819484,3.6952381 C8.56434011,4.17354497 9.1931346,5.68953457 10.4427642,7.9675724" id="Shape" fill="#657EB4"></path>
            <path d="M8.57229955,9.84837233 C7.88778909,8.60801723 7.09980613,7.03527933 6.43121451,6.4677966 C6.25610719,6.31376557 5.8660954,6.38672763 5.60343442,6.6947897 L0.429808891,12.8884584 C0.421849466,12.8965653 0.421849466,12.9046722 0.413890044,12.9127791 C-0.501443706,14.3720204 0.493484281,15.8961169 2.01373425,15.8961169 L12.0903649,15.8961169 C12.2575128,15.8961169 12.3211882,15.6853376 12.1938374,15.579948 C11.1431935,14.8016859 9.91744218,12.296655 8.57229955,9.84837233" id="SVGID_11_" fill="#60B8F3"></path>
        </g>
        <path d="M102,0.0324963713 C101.898311,-0.00731168354 98.6912019,0.000649927427 98.6912019,0.000649927427 L98.6912019,8.12945472 C98.3548465,7.89060639 98.0028468,7.6836045 97.6117359,7.50844904 C96.7356474,7.1024069 95.7813369,6.90336662 94.7331596,6.90336662 C93.6615157,6.90336662 92.6915606,7.1024069 91.8311167,7.50844904 C90.9706728,7.91449122 90.2275622,8.45588077 89.6017846,9.14854092 C88.9760071,9.84120108 88.4910298,10.6692086 88.1546744,11.6325635 C87.8183189,12.5959185 87.6462301,13.6388895 87.6462301,14.7694383 C87.6462301,15.8920254 87.8183189,16.9349964 88.1546744,17.8824281 C88.4910298,18.8378214 88.9760071,19.6578674 89.6017846,20.3505275 C90.2275622,21.0431877 90.9706728,21.5925388 91.8311167,21.9906194 C92.6915606,22.3966615 93.6536936,22.5957018 94.7331596,22.5957018 C95.7813369,22.5957018 96.7356474,22.4046232 97.6117359,22.0145042 C98.487824,21.6323469 99.2309349,21.098919 99.8410679,20.422182 C100.451201,19.7454451 100.936178,18.9253992 101.288178,17.9540826 C101.335112,17.8187352 101.382045,17.6833879 101.428978,17.5400789 C101.804445,16.4652614 102,15.2073268 102,13.7662753 L102,0.0324963713 Z M64.9305093,15.2710197 L64.9305093,14.3554345 L64.9305093,8.01799216 L68.2314853,8.01799216 L68.2314853,16.146797 L68.2314853,23.5431335 C68.2314853,24.5542581 68.0593965,25.4618818 67.7073968,26.2580428 C67.3553968,27.0542039 66.8704192,27.7309409 66.2368196,28.2882536 C65.6110423,28.8455664 64.8601093,29.2675318 63.9918433,29.5621114 C63.1235769,29.856691 62.1692663,30 61.1445558,30 C60.1198452,30 59.1733571,29.856691 58.3129128,29.5621114 C57.4524689,29.2675318 56.7093583,28.8455664 56.0757587,28.2882536 L58.3207353,25.804231 C58.9465125,26.520776 59.893001,26.8790485 61.1523779,26.8790485 C62.3882885,26.8790485 63.3269545,26.520776 63.9683766,25.804231 C64.6097984,25.087686 64.9305093,24.0367534 64.9305093,22.6673563 L64.9305093,21.7742829 C64.6348535,21.9234702 64.3218218,22.0538219 63.9918433,22.1657748 C63.1235769,22.4603544 62.1692663,22.6036634 61.1445558,22.6036634 C60.1198452,22.6036634 59.1733571,22.4603544 58.3129128,22.1657748 C57.4524689,21.8711952 56.7093583,21.4492298 56.0757587,20.8919171 C55.4499811,20.3346043 54.9493593,19.6578674 54.5973593,18.8617063 C54.2375375,18.0655452 54.0576263,17.1579215 54.0576263,16.146797 L54.0576263,8.01799216 L54.0654487,8.01799216 L57.3742468,8.01799216 L57.3742468,15.2710197 C57.3742468,16.6483784 57.6871356,17.6913495 58.3207353,18.4078944 C58.9465125,19.1244394 59.893001,19.4827119 61.1523779,19.4827119 C62.3882885,19.4827119 63.3269545,19.1244394 63.9683766,18.4078944 C64.6097984,17.6913495 64.9305093,16.6404168 64.9305093,15.2710197 Z M98.6599128,16.6722633 C98.4487131,17.2534609 98.159291,17.7391191 97.7916468,18.1451613 C97.4240026,18.5512034 96.9781362,18.8696679 96.4540474,19.1005546 C95.929959,19.3314413 95.3589369,19.4508655 94.7331596,19.4508655 C94.0917378,19.4508655 93.5128936,19.3314413 92.9966272,19.092593 C92.4803609,18.8537447 92.0344942,18.5273186 91.6590279,18.1133149 C91.2835615,17.6993111 90.9941394,17.2056912 90.7907619,16.6404168 C90.587384,16.0751424 90.4856952,15.4541368 90.4856952,14.7773999 C90.4856952,14.1006629 90.587384,13.4796573 90.7907619,12.8984597 C90.9941394,12.3172621 91.2835615,11.8236422 91.6590279,11.4096384 C92.0344942,10.9956347 92.4803609,10.6692086 92.9966272,10.4303603 C93.5128936,10.191512 94.0917378,10.0720878 94.7331596,10.0720878 C95.3589369,10.0720878 95.929959,10.191512 96.4540474,10.4303603 C96.9781362,10.6692086 97.4240026,11.0035963 97.7916468,11.4255616 C98.159291,11.847527 98.4487131,12.3491085 98.6599128,12.9303061 C98.8711128,13.5115037 98.980624,14.1245478 98.980624,14.7773999 C98.980624,15.4620984 98.8711128,16.0910657 98.6599128,16.6722633 Z M70.8753949,13.3920796 C70.8753949,12.380955 71.0553058,11.4733313 71.4151279,10.6771702 C71.77495,9.88100912 72.2677497,9.20427218 72.8935272,8.64695941 C73.5193045,8.08964664 74.2702375,7.66768128 75.1306814,7.37310166 C75.9911253,7.07852208 76.9376138,6.93521305 77.9623244,6.93521305 C78.9870349,6.93521305 79.9335234,7.07852208 80.8096115,7.37310166 C81.6778779,7.66768128 82.4288109,8.08964664 83.0545881,8.64695941 C83.6803657,9.20427218 84.1731654,9.88100912 84.5251651,10.6771702 C84.8693426,11.4733313 85.0492538,12.380955 85.0492538,13.3920796 L85.0492538,22.5797786 L81.7404554,22.5797786 L81.7404554,14.2678568 C81.7404554,12.8904981 81.4197446,11.847527 80.7783228,11.130982 C80.136901,10.4144371 79.1982346,10.0561646 77.9623244,10.0561646 C76.7029471,10.0561646 75.756459,10.4144371 75.1306814,11.130982 C74.4970817,11.847527 74.184193,12.8984597 74.184193,14.2678568 L74.184193,22.571817 L70.8753949,22.571817 L70.8753949,13.3920796 Z M32.7420827,14.6977838 C32.7499048,14.7296302 32.7655494,14.753515 32.7733715,14.7853615 C33.3052824,16.3060292 33.8059042,17.802812 34.3143484,19.0766698 C34.2517705,19.0527849 35.4720365,15.3506359 35.7614587,14.4589354 C36.0508808,13.567235 37.0364801,10.661247 37.239858,10.0959726 C37.4510577,9.50681341 37.5449244,8.66288263 39.1015458,8.66288263 C40.6659894,8.66288263 40.8459003,9.61031436 41.0023446,10.0959726 C41.2135446,10.8204792 41.4560333,11.6166403 41.7063442,12.420763 C41.9566551,13.2248857 42.2147885,14.0210468 42.4729218,14.8092463 C42.7388769,15.5974458 42.9891881,16.3617604 43.2316769,17.1021903 C43.4741657,17.8426201 43.7010099,18.5034338 43.9122096,19.0766698 C44.1468763,18.4317793 44.4128317,17.6913495 44.710076,16.8713035 C45.0073202,16.0512576 45.3123869,15.183442 45.6252753,14.2758184 C45.6330978,14.2519335 45.6409199,14.2200871 45.648742,14.1962023 C45.648742,14.1723174 45.6565644,14.1563942 45.6643865,14.1245478 C45.9772753,13.2169241 46.2745196,12.3093005 46.5639417,11.3937152 C46.8533638,10.4781299 47.291408,8.8539613 47.5182522,8.02595377 L51.1946946,8.02595377 C51.1946946,8.02595377 51.1477612,8.16926276 51.0695391,8.40811109 C50.8661615,9.0609632 50.2873173,10.9160185 50.0917619,11.4016768 C49.841451,12.0147209 46.6186971,20.4858749 45.6722087,22.611625 L42.2460772,22.611625 C42.089633,22.2215061 41.8862555,21.6562317 41.6359442,20.8998787 C41.3856333,20.1514872 41.1118558,19.3314413 40.8067891,18.4397409 C40.5095449,17.5480405 40.2044785,16.6404168 39.9072343,15.7089083 C39.6099897,14.7773999 39.3283901,13.9175459 39.0780792,13.137308 C38.827768,13.9175459 36.1603917,22.2135445 36.0117696,22.6036634 L32.4291939,22.6036634 C32.1084829,22.0861587 30.8334614,18.9333608 29.6053732,15.7009467 C29.5740843,15.6292922 29.5506177,15.5655993 29.5193288,15.4859832 C28.2208406,12.0784137 26.9692857,8.54345847 27.0005746,8.04187699 C27.0396857,8.02595377 30.6066171,8.02595377 30.6691948,8.03391538 C30.7004837,8.0498386 30.8882169,8.64695941 31.1385279,9.4908902 C31.6000388,11.0434043 32.3353272,13.5592734 32.7107936,14.6579757 C32.7107936,14.6659373 32.718616,14.6659373 32.718616,14.6738989 C32.7420827,14.6818605 32.7420827,14.6898221 32.7420827,14.6977838 Z" id="Shape" fill="#3F4D66"></path>
        <path d="M108.898032,1.80983607 L108.404293,5.68434189e-14 L107.80322,5.68434189e-14 L107.80322,3 L108.161002,3 L108.161002,0.639344263 L108.182469,0.639344263 L108.726297,2.61639344 L109.069767,2.61639344 C109.248658,1.95737705 109.434705,1.29836066 109.613596,0.639344263 L109.627907,0.639344263 L109.627907,3 L110,3 L110,5.68434189e-14 L109.406082,5.68434189e-14 L108.912343,1.80983607 L108.898032,1.80983607 Z M106.558139,3 L106.951699,3 L106.951699,0.452459014 L107.502683,0.452459014 L107.502683,0 L106,0 L106,0.452459014 L106.558139,0.452459014 L106.558139,3 Z" id="SVGID_9_" fill="#60B8F3"></path>
    </g>
</svg>